<svg width="17" height="17" viewBox="0 0 17 17" fill="none" xmlns="http://www.w3.org/2000/svg">
<path d="M14.5116 12.1409L11.6323 9.52286C11.4962 9.39915 11.3173 9.33317 11.1335 9.33886C10.9496 9.34454 10.7752 9.42144 10.647 9.55332L8.95193 11.2965C8.54393 11.2186 7.72368 10.9629 6.87935 10.1207C6.03502 9.27565 5.77931 8.45328 5.70352 8.04811L7.44531 6.35236C7.57735 6.22424 7.65436 6.04978 7.66005 5.86588C7.66573 5.68199 7.59964 5.5031 7.47577 5.36707L4.85847 2.4884C4.73455 2.35195 4.56231 2.26918 4.37833 2.25767C4.19436 2.24616 4.01315 2.30683 3.87318 2.42678L2.3361 3.74499C2.21364 3.86789 2.14054 4.03147 2.13068 4.20469C2.12006 4.38178 1.91748 8.57653 5.17014 11.8306C8.00772 14.6675 11.5621 14.875 12.5411 14.875C12.6841 14.875 12.772 14.8708 12.7953 14.8694C12.9685 14.8597 13.132 14.7862 13.2543 14.6632L14.5718 13.1254C14.6923 12.9859 14.7534 12.8049 14.7421 12.6209C14.7309 12.4369 14.6482 12.2647 14.5116 12.1409Z" fill="white"/>
</svg>
